<?xml version="1.0" encoding="UTF-8"?> <svg xmlns="http://www.w3.org/2000/svg" width="120" height="32" viewBox="0 0 120 32" fill="none"> <path d="M37.2672 14V1.232C38.1696 1.0784 39.4368 0.963199 41.2224 0.963199C43.0272 0.963199 44.3136 1.3088 45.1776 2C46.0224 2.6528 46.56 3.728 46.56 4.9952C46.56 6.2624 46.1568 7.3568 45.3696 8.0672C44.3712 8.9888 42.8928 9.4304 41.1648 9.4304C40.7808 9.4304 40.4352 9.4112 40.1664 9.3536V14H37.2672ZM40.1664 3.2864V7.1072C40.416 7.1648 40.704 7.184 41.1456 7.184C42.7008 7.184 43.6608 6.3968 43.6608 5.0912C43.6608 3.9008 42.8352 3.1904 41.3568 3.1904C40.7808 3.1904 40.3776 3.2288 40.1664 3.2864ZM53.981 10.6784H50.2754L49.3538 14H46.3394L50.2754 1.0592H54.1154L58.1474 14H54.9794L53.981 10.6784ZM50.6978 8.4896H53.5586L52.7522 5.744C52.5218 4.976 52.2914 4.016 52.0994 3.248H52.061C51.869 4.016 51.677 4.9952 51.4658 5.744L50.6978 8.4896ZM59.8802 1.0592H68.4626V3.44H62.7794V5.6672C63.221 5.6096 63.8546 5.5712 64.3538 5.5712C65.6594 5.5712 67.0226 5.8976 68.0018 6.6272C68.9042 7.28 69.4994 8.2976 69.4994 9.7376C69.4994 10.9856 69.0194 11.9648 68.2706 12.656C67.0226 13.7504 64.9874 14.1344 63.0098 14.1344C61.5698 14.1344 60.533 14.0384 59.8802 13.9424V1.0592ZM62.7794 7.8176V11.8688C63.1058 11.9264 63.4898 11.9456 63.893 11.9456C64.6034 11.9456 65.3138 11.7152 65.7938 11.2928C66.1778 10.928 66.4274 10.4096 66.4274 9.776C66.4274 9.1232 66.1586 8.6432 65.7362 8.3168C65.2178 7.9136 64.4882 7.7408 63.797 7.7408C63.4706 7.7408 63.125 7.7792 62.7794 7.8176ZM77.0196 0.828799C80.994 0.828799 83.1636 3.8048 83.1636 7.3952C83.1636 11.6576 80.61 14.2112 76.8084 14.2112C72.9876 14.2112 70.722 11.312 70.722 7.6064C70.722 3.728 73.218 0.828799 77.0196 0.828799ZM76.962 3.152C74.9652 3.152 73.8132 5.0336 73.8132 7.5488C73.8132 10.1024 75.0036 11.888 76.962 11.888C78.9396 11.888 80.0724 10.0064 80.0724 7.4912C80.0724 5.1488 78.978 3.152 76.962 3.152ZM84.852 1.0592H87.7704V4.88C87.7704 6.3776 88.5768 7.088 89.94 7.088C90.612 7.088 91.284 6.8768 91.8408 6.5888V1.0592H94.7592V14.1728H91.8408V8.7584H91.7832C90.8424 9.2 89.9592 9.4112 88.884 9.4112C86.5416 9.4112 84.852 8.1632 84.852 5.3984V1.0592ZM97.286 1.0592H99.974V4.8992C99.974 6.9728 99.9164 9.0272 99.8204 10.7552H99.878C100.569 9.2384 101.433 7.5296 102.201 6.1472L104.985 1.0592H107.98V14H105.292V10.1792C105.292 8.1824 105.331 6.416 105.504 4.7264H105.446C104.851 6.2624 104.006 7.9712 103.238 9.3344L100.608 14H97.286V1.0592ZM118.241 6.1472V8.528H113.48V11.6H118.798V14H110.561V1.0592H118.529V3.4592H113.48V6.1472H118.241ZM37.2672 31V18.232C38.1696 18.0784 39.4368 17.9632 41.2224 17.9632C43.0272 17.9632 44.3136 18.3088 45.1776 19C46.0224 19.6528 46.56 20.728 46.56 21.9952C46.56 23.2624 46.1568 24.3568 45.3696 25.0672C44.3712 25.9888 42.8928 26.4304 41.1648 26.4304C40.7808 26.4304 40.4352 26.4112 40.1664 26.3536V31H37.2672ZM40.1664 20.2864V24.1072C40.416 24.1648 40.704 24.184 41.1456 24.184C42.7008 24.184 43.6608 23.3968 43.6608 22.0912C43.6608 20.9008 42.8352 20.1904 41.3568 20.1904C40.7808 20.1904 40.3776 20.2288 40.1664 20.2864ZM47.0451 18.04H50.3475L52.2291 22.7056C52.5939 23.608 52.8435 24.3952 53.1507 25.1824H53.2083C53.3619 24.6256 53.5923 23.7616 53.8995 22.648L55.3011 18.04H58.3923L55.9539 24.4336C55.1667 26.4304 54.3795 28.3888 53.4003 29.5792C52.5555 30.6352 51.4803 31.288 49.9635 31.288C49.2915 31.288 48.9075 31.2112 48.5235 31.0768L48.7347 28.7344C48.9843 28.792 49.2723 28.8304 49.6947 28.8304C50.5971 28.8304 51.2115 28.216 51.4611 27.64C51.5571 27.4096 51.4995 27.2368 51.4035 27.0256L47.0451 18.04ZM59.5614 18.0592H62.4414V23.4544H62.7102L66.2622 18.0592H69.8142L65.3022 23.8192C66.9726 24.2224 67.7214 25.3744 68.259 26.9296C68.7198 28.312 69.1422 29.7136 69.7566 31H66.6078C66.1662 30.1168 65.9166 29.1184 65.6094 28.1584C65.1678 26.6992 64.5726 25.5856 62.9982 25.5856H62.4414V31H59.5614V18.0592ZM71.1672 18.0592H73.8552V21.8992C73.8552 23.9728 73.7976 26.0272 73.7016 27.7552H73.7592C74.4504 26.2384 75.3144 24.5296 76.0824 23.1472L78.8664 18.0592H81.8616V31H79.1736V27.1792C79.1736 25.1824 79.212 23.416 79.3848 21.7264H79.3272C78.732 23.2624 77.8872 24.9712 77.1192 26.3344L74.4888 31H71.1672V18.0592Z" fill="#283466"></path> <rect width="32" height="32" rx="2" fill="#283466"></rect> <path d="M6.2672 23V10.232C7.1696 10.0784 8.4368 9.9632 10.2224 9.9632C12.0272 9.9632 13.3136 10.3088 14.1776 11C15.0224 11.6528 15.56 12.728 15.56 13.9952C15.56 15.2624 15.1568 16.3568 14.3696 17.0672C13.3712 17.9888 11.8928 18.4304 10.1648 18.4304C9.7808 18.4304 9.4352 18.4112 9.1664 18.3536V23H6.2672ZM9.1664 12.2864V16.1072C9.416 16.1648 9.704 16.184 10.1456 16.184C11.7008 16.184 12.6608 15.3968 12.6608 14.0912C12.6608 12.9008 11.8352 12.1904 10.3568 12.1904C9.7808 12.1904 9.3776 12.2288 9.1664 12.2864ZM17.4235 23V10.232C18.3259 10.0784 19.5931 9.9632 21.3787 9.9632C23.1835 9.9632 24.4699 10.3088 25.3339 11C26.1787 11.6528 26.7163 12.728 26.7163 13.9952C26.7163 15.2624 26.3131 16.3568 25.5259 17.0672C24.5275 17.9888 23.0491 18.4304 21.3211 18.4304C20.9371 18.4304 20.5915 18.4112 20.3227 18.3536V23H17.4235ZM20.3227 12.2864V16.1072C20.5723 16.1648 20.8603 16.184 21.3019 16.184C22.8571 16.184 23.8171 15.3968 23.8171 14.0912C23.8171 12.9008 22.9915 12.1904 21.5131 12.1904C20.9371 12.1904 20.5339 12.2288 20.3227 12.2864Z" fill="white"></path> </svg> 